
<svg viewBox="0 0 800 600" width="800" height="600" xmlns="http://www.w3.org/2000/svg" class="svg-canvas"
  transform="scale(2.5)">
  <g transform="translate(0, 50)">
  <!-- { -->
    <path transform="translate(298,350) rotate(180,0,0) scale(1.3)" d="M34.81,54.65v-26.4C34.81,12.68,22.14,0,6.56,0H0v16.37h6.56c6.55,0,11.88,5.33,11.88,11.88v26.4
  c0,11.04,4.29,18.78,10.19,23.89c-5.9,5.11-10.19,12.85-10.19,23.89v26.4c0,6.55-5.33,11.88-11.88,11.88H0v16.37h6.56
  c15.58,0,28.26-12.68,28.26-28.26v-26.4c0-15.26,14.53-15.7,16.19-15.7V70.35C49.35,70.35,34.81,69.91,34.81,54.65z"
      fill="#3451b2" />
    <!-- } -->
    <path transform="translate(502,146)  scale(1.3)" d="M34.81,54.65v-26.4C34.81,12.68,22.14,0,6.56,0H0v16.37h6.56c6.55,0,11.88,5.33,11.88,11.88v26.4
  c0,11.04,4.29,18.78,10.19,23.89c-5.9,5.11-10.19,12.85-10.19,23.89v26.4c0,6.55-5.33,11.88-11.88,11.88H0v16.37h6.56
  c15.58,0,28.26-12.68,28.26-28.26v-26.4c0-15.26,14.53-15.7,16.19-15.7V70.35C49.35,70.35,34.81,69.91,34.81,54.65z"
      fill="#3451b2" />
    <!-- w -->
    <path
      d="M11.79-66.54L0.95-66.54L20.25 0L23.86 0L27.76-11.88L11.79-66.54ZM32.03-66.54L24.53-39.73L29.37-23.19L30.32-23.19Q33.84-35.36 37.36-47.72L37.36-47.72L50.76 0L54.37 0L58.27-11.69L42.78-66.54L32.03-66.54ZM63.50-66.54L55.61-39.64L60.46-23.19L61.41-23.19L74.34-66.54L63.50-66.54Z"
      transform="translate(294 275) scale(1.3)" fill="#3451b2" stroke="#3451b2" stroke-width="3.245" />
    <!-- - -->
    <rect width="56.026755480765" height="16.168686264019" transform="translate(380 310) " class="radius-elem" x="0" y="0"
      fill="#3451b2" rx="0" ry="0" />
    <!-- L -->
    <path d="M39.64 0L3.90 0L3.90-66.54L14.54-66.54L14.54-10.46L39.64-10.46L39.64 0Z"
      transform="translate(450 275) scale(1.3)" fill="#3451b2" stroke="#3451b2" stroke-width="3.245" />
  </g>
  <!---->
</svg>