
<svg viewBox="0 0 800 600" width="800" height="600" xmlns="http://www.w3.org/2000/svg" class="svg-canvas"
  transform="scale(1.8)">
  <g>
  <!-- { -->
    <path transform="translate(298,350) rotate(180,0,0) scale(1.3)" d="M34.81,54.65v-26.4C34.81,12.68,22.14,0,6.56,0H0v16.37h6.56c6.55,0,11.88,5.33,11.88,11.88v26.4
  c0,11.04,4.29,18.78,10.19,23.89c-5.9,5.11-10.19,12.85-10.19,23.89v26.4c0,6.55-5.33,11.88-11.88,11.88H0v16.37h6.56
  c15.58,0,28.26-12.68,28.26-28.26v-26.4c0-15.26,14.53-15.7,16.19-15.7V70.35C49.35,70.35,34.81,69.91,34.81,54.65z"
      fill="#3451b2" />
    <!-- } -->
    <path transform="translate(502,146)  scale(1.3)" d="M34.81,54.65v-26.4C34.81,12.68,22.14,0,6.56,0H0v16.37h6.56c6.55,0,11.88,5.33,11.88,11.88v26.4
  c0,11.04,4.29,18.78,10.19,23.89c-5.9,5.11-10.19,12.85-10.19,23.89v26.4c0,6.55-5.33,11.88-11.88,11.88H0v16.37h6.56
  c15.58,0,28.26-12.68,28.26-28.26v-26.4c0-15.26,14.53-15.7,16.19-15.7V70.35C49.35,70.35,34.81,69.91,34.81,54.65z"
      fill="#3451b2" />
    <!-- w -->
    <path
      d="M11.79-66.54L0.95-66.54L20.25 0L23.86 0L27.76-11.88L11.79-66.54ZM32.03-66.54L24.53-39.73L29.37-23.19L30.32-23.19Q33.84-35.36 37.36-47.72L37.36-47.72L50.76 0L54.37 0L58.27-11.69L42.78-66.54L32.03-66.54ZM63.50-66.54L55.61-39.64L60.46-23.19L61.41-23.19L74.34-66.54L63.50-66.54Z"
      transform="translate(294 275) scale(1.3)" fill="#3451b2" stroke="#3451b2" stroke-width="3.245" />
    <!-- - -->
    <rect width="56.026755480765" height="16.168686264019" transform="translate(380 310) " class="radius-elem" x="0" y="0"
      fill="#3451b2" rx="0" ry="0" />
    <!-- L -->
    <path d="M39.64 0L3.90 0L3.90-66.54L14.54-66.54L14.54-10.46L39.64-10.46L39.64 0Z"
      transform="translate(450 275) scale(1.3)" fill="#3451b2" stroke="#3451b2" stroke-width="3.245" />
  </g>
  <!---->
  <g transform="translate(262,370) scale(0.9, 0.6)">
    <!-- w -->
    <path
      d="M11.79-66.54L0.95-66.54L20.25 0L23.86 0L27.76-11.88L11.79-66.54ZM32.03-66.54L24.53-39.73L29.37-23.19L30.32-23.19Q33.84-35.36 37.36-47.72L37.36-47.72L50.76 0L54.37 0L58.27-11.69L42.78-66.54L32.03-66.54ZM63.50-66.54L55.61-39.64L60.46-23.19L61.41-23.19L74.34-66.54L63.50-66.54Z"
      transform="translate(0 82) " fill="#3451b2" stroke="#3451b2" stroke-width="3.245" />
    <path
      d="M3.61-14.35L3.61-14.35L3.61-38.50Q3.80-43.16 7.89-47.53L7.89-47.53Q12.93-52.57 20.06-52.66L20.06-52.66L20.06-43.16Q16.35-43.16 14.45-39.83L14.45-39.83Q13.78-38.69 13.78-37.74L13.78-37.74L13.78-32.03L31.84-32.03L31.84-37.64Q31.84-41.64 27.47-42.87L27.47-42.87Q26.24-43.25 25.00-43.25L25.00-43.25L25.00-52.66Q31.75-52.66 36.98-48.00L36.98-48.00Q41.35-43.82 41.45-38.59L41.45-38.59L41.45-22.24L13.78-22.24L13.78-14.35Q13.78-11.88 16.54-10.27L16.54-10.27Q18.25-9.32 20.25-9.32L20.25-9.32L20.25 0Q11.41 0 6.27-7.13L6.27-7.13Q3.61-11.03 3.61-14.35ZM25.00 0L25.00 0L25.00-9.41Q30.51-9.41 32.61-14.07L32.61-14.07Q32.89-14.73 33.08-15.30L33.08-15.30L41.54-12.26Q39.83-5.80 33.84-2.28L33.84-2.28Q29.75 0 25.00 0Z"
      transform="translate(72.33934360878649 82) " fill="#3451b2" stroke="#3451b2" stroke-width="3.245" />
    <path
      d="M14.35 0L3.90 0L3.90-67.59L14.35-67.59L14.35 0ZM24.81 0L19.11 0L19.11-9.79L24.81-9.79Q28.23-9.79 29.94-12.93L29.94-12.93Q30.51-13.88 30.51-14.54L30.51-14.54L30.51-38.12Q30.51-40.11 28.23-41.73L28.23-41.73Q26.62-42.78 24.91-42.87L24.91-42.87L19.11-42.87L19.11-52.66L24.91-52.66Q32.99-52.66 37.74-45.72L37.74-45.72Q40.30-42.02 40.40-38.50L40.40-38.50L40.40-14.35Q40.40-9.98 36.69-5.51L36.69-5.51Q31.94-0.10 24.81 0L24.81 0Z"
      transform="translate(114.54511299882299 82) " fill="#3451b2" stroke="#3451b2" stroke-width="3.245" />
    <path d="M0,0Z" transform="translate(154.8497105138595 82) " fill="#3451b2" stroke="#3451b2" stroke-width="3.245" />
    <!-- L -->
    <path d="M39.64 0L3.90 0L3.90-66.54L14.54-66.54L14.54-10.46L39.64-10.46L39.64 0Z"
      transform="translate(174.716710372646 82) " fill="#3451b2" stroke="#3451b2" stroke-width="3.245" />
    <path
      d="M4.56-59.98L4.56-59.98Q4.56-63.50 7.70-65.02L7.70-65.02Q8.94-65.59 10.17-65.59L10.17-65.59Q13.78-65.59 15.30-62.45L15.30-62.45Q15.87-61.22 15.87-59.98L15.87-59.98Q15.87-56.56 12.64-55.04L12.64-55.04Q11.41-54.47 10.17-54.47L10.17-54.47Q6.75-54.47 5.13-57.51L5.13-57.51Q4.56-58.65 4.56-59.98ZM15.40 0L5.23 0L5.23-50.67L15.40-50.67L15.40 0Z"
      transform="translate(213.02507741893248 82) " fill="#3451b2" stroke="#3451b2" stroke-width="3.245" />
    <path
      d="M3.61-14.35L3.61-14.35L3.61-38.40Q3.61-43.06 7.79-47.43L7.79-47.43Q12.74-52.66 20.25-52.66L20.25-52.66L20.25-42.87Q15.30-42.87 13.88-38.78L13.88-38.78Q13.59-37.93 13.59-37.07L13.59-37.07L13.59-15.68Q13.59-12.07 16.92-10.46L16.92-10.46Q18.44-9.70 20.34-9.70L20.34-9.70L20.34 0.10Q11.12 0.10 6.08-7.32L6.08-7.32Q3.61-11.03 3.61-14.35ZM24.53 0.10L24.53 0.10L24.53-9.70Q29.09-9.70 30.51-13.59L30.51-13.59Q30.89-14.64 30.89-15.49L30.89-15.49L30.89-37.07Q30.89-41.07 27.19-42.40L27.19-42.40Q25.95-42.87 24.43-42.87L24.43-42.87L24.43-52.66Q33.37-52.66 38.21-45.44L38.21-45.44Q40.69-41.73 40.69-38.40L40.69-38.40L40.69-14.35Q40.69-9.70 36.69-5.23L36.69-5.23Q31.84 0 24.53 0.10Z"
      transform="translate(230.420553840219 82) " fill="#3451b2" stroke="#3451b2" stroke-width="3.245" />
    <path
      d="M13.88 0L3.61 0L3.61-38.40Q3.61-42.97 7.79-47.43L7.79-47.43Q12.93-52.76 20.53-52.85L20.53-52.85L20.53-42.78Q16.16-42.78 14.45-39.35L14.45-39.35Q13.88-38.21 13.88-37.17L13.88-37.17L13.88 0ZM24.72-42.78L24.72-42.78L24.72-52.85Q33.75-52.85 38.88-45.53L38.88-45.53Q41.64-41.73 41.64-38.40L41.64-38.40L41.64 0L31.37 0L31.37-37.17Q31.37-40.02 28.61-41.73L28.61-41.73Q26.90-42.78 24.72-42.78Z"
      transform="translate(271.7707958865055 82) " fill="#3451b2" stroke="#3451b2" stroke-width="3.245" />
  </g>
</svg>